<svg xmlns="http://www.w3.org/2000/svg" viewBox="0 0 233.5 60">
	<g id="text">
		<g>
			<path d="M66.771,39.732c0-0.203,0.163-0.387,0.386-0.387h8.014c0.224,0,0.386,0.184,0.386,0.387v0.59
				c0,0.203-0.163,0.387-0.386,0.387h-6.834v4.963h5.838c0.203,0,0.386,0.183,0.386,0.387v0.59c0,0.224-0.183,0.386-0.386,0.386
				h-5.838v5.188h6.834c0.224,0,0.386,0.183,0.386,0.386v0.59c0,0.204-0.163,0.387-0.386,0.387h-8.014
				c-0.224,0-0.386-0.183-0.386-0.387V39.732z"/>
			<path d="M78.809,39.509c0-0.203,0.183-0.366,0.386-0.366h0.509l9.173,11.431c0.02,0,0.02,0,0.041,0V39.732
				c0-0.203,0.163-0.387,0.387-0.387h0.712c0.203,0,0.386,0.184,0.386,0.387v13.688c0,0.204-0.183,0.366-0.386,0.366H89.65
				l-9.336-11.654h-0.021v11.064c0,0.204-0.163,0.387-0.387,0.387h-0.712c-0.203,0-0.386-0.183-0.386-0.387V39.509z"/>
			<path d="M92.616,39.875c-0.122-0.265,0.041-0.529,0.346-0.529h0.813c0.183,0,0.305,0.122,0.346,0.224l5.065,11.391h0.081
				l5.065-11.391c0.041-0.102,0.183-0.224,0.346-0.224h0.813c0.305,0,0.468,0.265,0.346,0.529l-6.183,13.688
				c-0.061,0.122-0.183,0.224-0.346,0.224h-0.203c-0.143,0-0.285-0.102-0.346-0.224L92.616,39.875z"/>
			<path d="M108.051,39.732c0-0.203,0.183-0.387,0.386-0.387h0.814c0.203,0,0.386,0.184,0.386,0.387v13.465
				c0,0.204-0.183,0.387-0.386,0.387h-0.814c-0.203,0-0.386-0.183-0.386-0.387V39.732z"/>
			<path d="M113.785,39.732c0-0.203,0.163-0.387,0.386-0.387h5.268c2.441,0,4.434,1.912,4.434,4.333c0,1.871-1.241,3.438-3.01,4.149
				l2.787,5.166c0.143,0.265,0,0.59-0.346,0.59h-1.037c-0.183,0-0.285-0.102-0.326-0.183l-2.705-5.391h-3.885v5.187
				c0,0.204-0.183,0.387-0.386,0.387h-0.793c-0.224,0-0.386-0.183-0.386-0.387V39.732z M119.338,46.668
				c1.566,0,2.929-1.302,2.929-2.969c0-1.546-1.363-2.868-2.929-2.868h-3.946v5.837H119.338z"/>
			<path d="M133.491,39.143c4.068,0,7.322,3.274,7.322,7.343s-3.254,7.302-7.322,7.302s-7.302-3.233-7.302-7.302
				S129.423,39.143,133.491,39.143z M133.491,52.363c3.234,0,5.898-2.644,5.898-5.878s-2.665-5.919-5.898-5.919
				s-5.878,2.685-5.878,5.919S130.257,52.363,133.491,52.363z"/>
			<path d="M143.922,39.509c0-0.203,0.183-0.366,0.386-0.366h0.509l9.173,11.431c0.02,0,0.02,0,0.041,0V39.732
				c0-0.203,0.163-0.387,0.387-0.387h0.712c0.203,0,0.386,0.184,0.386,0.387v13.688c0,0.204-0.183,0.366-0.386,0.366h-0.366
				l-9.336-11.654h-0.02v11.064c0,0.204-0.163,0.387-0.387,0.387h-0.712c-0.203,0-0.386-0.183-0.386-0.387V39.509z"/>
			<path d="M161.268,39.428c0.041-0.163,0.203-0.285,0.366-0.285h0.325c0.143,0,0.305,0.102,0.346,0.224l4.027,11.207
				c0.041,0,0.061,0,0.102,0l3.966-11.207c0.041-0.122,0.204-0.224,0.346-0.224h0.325c0.163,0,0.326,0.122,0.366,0.285l2.624,13.668
				c0.061,0.285-0.061,0.488-0.366,0.488h-0.814c-0.163,0-0.325-0.143-0.366-0.285l-1.811-10.475c-0.02,0-0.061,0-0.081,0
				l-3.743,10.739c-0.041,0.122-0.224,0.224-0.346,0.224h-0.366c-0.122,0-0.305-0.102-0.346-0.224l-3.783-10.739
				c-0.021,0-0.061,0-0.082,0l-1.77,10.475c-0.021,0.143-0.204,0.285-0.366,0.285h-0.813c-0.305,0-0.427-0.203-0.366-0.488
				L161.268,39.428z"/>
			<path d="M177.19,39.732c0-0.203,0.163-0.387,0.386-0.387h8.014c0.225,0,0.387,0.184,0.387,0.387v0.59
				c0,0.203-0.162,0.387-0.387,0.387h-6.834v4.963h5.838c0.203,0,0.387,0.183,0.387,0.387v0.59c0,0.224-0.184,0.386-0.387,0.386
				h-5.838v5.188h6.834c0.225,0,0.387,0.183,0.387,0.386v0.59c0,0.204-0.162,0.387-0.387,0.387h-8.014
				c-0.224,0-0.386-0.183-0.386-0.387V39.732z"/>
			<path d="M189.228,39.509c0-0.203,0.184-0.366,0.387-0.366h0.509l9.173,11.431c0.021,0,0.021,0,0.041,0V39.732
				c0-0.203,0.163-0.387,0.387-0.387h0.712c0.203,0,0.387,0.184,0.387,0.387v13.688c0,0.204-0.184,0.366-0.387,0.366h-0.366
				l-9.336-11.654h-0.021v11.064c0,0.204-0.163,0.387-0.387,0.387h-0.712c-0.203,0-0.387-0.183-0.387-0.387V39.509z"/>
			<path d="M206.98,40.709h-3.539c-0.224,0-0.386-0.184-0.386-0.387v-0.59c0-0.203,0.162-0.387,0.386-0.387h8.624
				c0.225,0,0.387,0.184,0.387,0.387v0.59c0,0.203-0.162,0.387-0.387,0.387h-3.539v12.488c0,0.204-0.183,0.387-0.386,0.387h-0.773
				c-0.203,0-0.387-0.183-0.387-0.387V40.709z"/>
			<path d="M213.771,51.448c0.102-0.122,0.203-0.265,0.306-0.387c0.203-0.264,0.427-0.427,0.712-0.183
				c0.142,0.122,1.627,1.546,3.438,1.546c1.647,0,2.726-1.037,2.726-2.237c0-1.403-1.221-2.237-3.56-3.214
				c-2.237-0.977-3.58-1.892-3.58-4.211c0-1.383,1.099-3.62,4.332-3.62c1.993,0,3.479,1.037,3.479,1.037
				c0.122,0.062,0.366,0.306,0.122,0.691c-0.081,0.122-0.163,0.265-0.244,0.387c-0.184,0.285-0.387,0.366-0.712,0.184
				c-0.143-0.082-1.424-0.936-2.665-0.936c-2.155,0-2.807,1.383-2.807,2.237c0,1.362,1.037,2.155,2.746,2.867
				c2.746,1.119,4.516,2.156,4.516,4.516c0,2.115-2.014,3.661-4.394,3.661c-2.4,0-4.027-1.403-4.292-1.647
				C213.731,51.997,213.527,51.835,213.771,51.448z"/>
		</g>
	</g>
	<g id="crystal">
		<g>
			<g>
				<path fill="#252C30" d="M86.088,24.46c-0.234-0.239-0.665-0.278-0.982,0c-1.432,1.155-3.126,1.989-5.087,2.195
					c-0.308,0.033-0.621,0.052-0.943,0.052c-5.045,0-8.822-4.177-8.822-9.106c0-4.963,3.739-9.176,8.785-9.176
					c1.944,0,3.878,0.67,5.443,1.821c0.215,0.158,0.423,0.324,0.623,0.5c0.069,0.069,0.144,0.117,0.218,0.156
					c0.268,0.141,0.553,0.094,0.767-0.156l2.403-2.48c0.237-0.236,0.296-0.562,0.162-0.842c-0.013-0.026-0.041-0.048-0.057-0.074
					c-0.041-0.064-0.08-0.13-0.143-0.186l0,0c0,0,0,0,0,0c-0.318-0.286-0.639-0.552-0.964-0.805
					c-0.131-0.102-0.266-0.191-0.397-0.287c-0.192-0.14-0.384-0.282-0.58-0.41c-0.184-0.121-0.373-0.229-0.56-0.339
					c-0.146-0.086-0.292-0.175-0.44-0.255c-0.222-0.12-0.45-0.228-0.678-0.334c-0.118-0.054-0.234-0.11-0.354-0.161
					c-0.256-0.11-0.519-0.208-0.785-0.301c-0.095-0.033-0.189-0.066-0.286-0.097c-0.291-0.094-0.589-0.178-0.893-0.252
					c-0.072-0.018-0.145-0.034-0.218-0.05c-0.33-0.075-0.667-0.139-1.014-0.19c-0.043-0.006-0.088-0.011-0.132-0.017
					C80.445,3.563,79.709,3.5,78.919,3.5c-7.88,0-14.222,6.343-14.222,14.221c0,0.361,0.027,0.714,0.054,1.067l0,0
					c0,0.002,0,0.003,0,0.005c0.026,0.349,0.067,0.691,0.118,1.032c0.009,0.061,0.018,0.122,0.027,0.183
					c0.055,0.338,0.119,0.673,0.197,1.002c0.005,0.022,0.011,0.043,0.017,0.065c0.341,1.414,0.893,2.738,1.621,3.946
					c0.021,0.035,0.043,0.07,0.065,0.106c0.936,1.52,2.148,2.842,3.574,3.906c0.004,0.003,0.009,0.006,0.013,0.009
					c2.376,1.768,5.323,2.823,8.536,2.823c3.506,0,6.897-1.225,9.573-3.824c0.278-0.272,0.354-0.785,0.039-1.062L86.088,24.46z"/>
			</g>
			<g>
				<path fill="#252C30" d="M114.012,12.36c0-4.685-3.86-8.467-8.588-8.467h-2.644l0,0h-8.626c-0.109,0-0.21,0.022-0.301,0.062
					c-0.272,0.118-0.448,0.39-0.448,0.687v26.084c0,0.393,0.312,0.747,0.748,0.747h3.627c0.392,0,0.748-0.354,0.748-0.747V20.676
					h4.372l5.24,10.441c0.076,0.157,0.278,0.354,0.633,0.354h4.132c0.671,0,0.948-0.633,0.671-1.145l-5.398-10.004
					C111.608,18.941,114.012,15.985,114.012,12.36z M104.988,16.461h-6.422V8.62h6.422c2.09,0,3.899,1.734,3.899,3.822
					C108.888,14.65,107.078,16.461,104.988,16.461z"/>
			</g>
			<g>
				<path fill="#252C30" d="M137.995,3.892h-4.058c-0.314,0-0.512,0.197-0.633,0.354l-6.302,9.062l-6.304-9.062
					c-0.119-0.157-0.315-0.354-0.632-0.354h-4.019c-0.627,0-0.943,0.627-0.627,1.14l8.979,13.163v12.53
					c0,0.393,0.316,0.747,0.754,0.747h3.621c0.396,0,0.752-0.354,0.752-0.747V18.155l9.101-13.124
					C138.944,4.519,138.628,3.892,137.995,3.892z"/>
			</g>
			<g>
				<path fill="#252C30" d="M192.003,3.931c-0.03-0.059-0.062-0.115-0.101-0.167c-0.114-0.155-0.275-0.265-0.57-0.265h-0.392
					c-0.178,0-0.315,0.049-0.424,0.127c-0.108,0.079-0.188,0.187-0.25,0.304l-8.378,18.135l-3.871,8.378
					c-0.022,0.048-0.017,0.093-0.029,0.14c-0.126,0.462,0.16,0.886,0.693,0.886h0.001h3.43c0.48,0,0.798-0.226,0.994-0.507
					c0.062-0.089,0.112-0.183,0.151-0.278l1.148-2.535l0.781-1.723h6.121l0.002-0.001h5.654l1.932,4.259
					c0.277,0.552,0.557,0.785,1.146,0.785h3.427c0.59,0,0.904-0.512,0.667-1.026L192.003,3.931z M195.033,22.055h-7.915l3.861-8.669
					h0.117L195.033,22.055z"/>
			</g>
			<g>
				<path fill="#252C30" d="M179.455,7.873V4.64c0-0.395-0.313-0.748-0.748-0.748h-17.219c-0.433,0-0.749,0.354-0.749,0.748v3.233
					c0,0.391,0.316,0.747,0.749,0.747h6.03v17.796v4.307v0.001c0,0.393,0.353,0.747,0.744,0.747h0.001h3.666
					c0.393,0,0.747-0.354,0.747-0.747v-9.467V8.62h6.03C179.143,8.62,179.455,8.264,179.455,7.873z"/>
			</g>
			<g>
				<path fill="#252C30" d="M150.104,15.155c-3.191-1.296-4.647-2.556-4.647-4.41c0-1.259,1.222-2.758,3.468-2.758
					c2.163,0,5.157,1.973,5.476,2.17c0.474,0.316,1.062,0,1.378-0.474l1.498-2.248c0.275-0.393,0.154-1.064-0.237-1.298
					c-0.786-0.595-3.862-2.639-7.88-2.639c-6.262,0-8.864,4.057-8.864,7.564c0,4.648,3.704,7.01,7.409,8.51
					c3.308,1.337,5,2.716,5,4.727c0,1.696-1.533,3.032-3.585,3.032c-2.562,0-5.75-2.322-5.947-2.443
					c-0.353-0.272-1.024-0.272-1.34,0.279l-1.418,2.443c-0.354,0.631-0.157,0.829,0.198,1.185c0.789,0.747,3.702,3.069,8.666,3.069
					c5.556,0,9.062-3.742,9.062-7.798C158.341,18.98,153.924,16.696,150.104,15.155z"/>
			</g>
			<g>
				<path fill="#252C30" d="M222.997,26.744H212.95v-2.591V4.64c0-0.395-0.358-0.748-0.749-0.748h-3.625
					c-0.433,0-0.749,0.354-0.749,0.748v5.269v20.815c0,0.229,0.116,0.435,0.291,0.576c0.126,0.1,0.277,0.171,0.458,0.171h14.421
					c0.431,0,0.747-0.354,0.747-0.747v-3.233C223.744,27.099,223.428,26.744,222.997,26.744z"/>
			</g>
		</g>
	</g>
	<g id="icon">
		<path id="light" fill="#069B75" d="M11.796,27.737l8.473,8.47c4.675,4.679,12.262,4.679,16.939,0
			c0.736-0.735,1.313-1.562,1.819-2.416l-3.937-3.936c-0.187-0.189-0.418-0.297-0.639-0.424c-0.272,0.93-0.748,1.81-1.478,2.541
			c-2.336,2.338-6.136,2.336-8.471,0l-8.468-8.469c-2.338-2.336-2.338-6.136,0-8.471c2.333-2.334,6.133-2.334,8.468,0l3.013,3.015
			c2.444-0.951,5.078-1.207,7.641-0.831l-6.418-6.417c-4.679-4.679-12.262-4.679-16.942,0C7.121,15.475,7.121,23.06,11.796,27.737z"
			/>
		<path id="dark" fill="#035A5A" d="M34.194,41.665l3.014,3.016c2.334,2.333,6.135,2.333,8.47,0c2.336-2.339,2.336-6.139,0-8.474
			l-8.47-8.47c-2.338-2.337-6.135-2.337-8.47,0c-0.73,0.73-1.205,1.61-1.479,2.539c-0.223-0.129-0.45-0.235-0.637-0.421l-3.937-3.935
			c0.503-0.857,1.083-1.682,1.818-2.418c4.676-4.677,12.264-4.677,16.94,0l8.47,8.47c4.678,4.679,4.678,12.261,0,16.941
			c-4.678,4.677-12.263,4.677-16.94,0l-6.421-6.421C29.117,42.872,31.753,42.614,34.194,41.665z"/>
	</g>
</svg>
